Coordinates
version=1
nRows=4
nColumns=107
inDegrees=yes

Units are S.I. units (second, meters, Newtons, ...)
If the header above contains a line with 'inDegrees', this indicates whether rotational values are in degrees (yes) or radians (no).

endheader
time	sternoclavicular_r2	sternoclavicular_r3	unrotscap_r3	unrotscap_r2	acromioclavicular_r2	acromioclavicular_r3	acromioclavicular_r1	unrothum_r1	unrothum_r3	unrothum_r2	elv_angle	shoulder_elv	shoulder1_r2	shoulder_rot	elbow_flexion	pro_sup	deviation	flexion	proximal_distal_r1	proximal_distal_r3	cmc_flexion	cmc_abduction	mp_flexion	ip_flexion	mcp2_flexion	mcp2_abduction	pm2_flexion	md2_flexion	mcp3_flexion	mcp3_abduction	pm3_flexion	md3_flexion	mcp4_flexion	mcp4_abduction	pm4_flexion	md4_flexion	mcp5_flexion	mcp5_abduction	pm5_flexion	md5_flexion	bicpt_tx	bicpt_ty	bicpt_tz	bicpt2_tx	bicpt2_ty	bicpt2_tz	ptpt_tx	ptpt_ty	ptpt_tz	FCUpt_tx	FCUpt_ty	FCUpt_tz	EDCpt_tx	EDCpt_ty	EDCpt_tz	APLpt_tx	APLpt_ty	APLpt_tz	FPLpt_tx	FPLpt_ty	FPLpt_tz	FPLpt2_tx	FPLpt2_ty	FPLpt2_tz	PEC1pt2_tx	PEC1pt2_ty	PEC1pt2_tz	PEC1pt3_tx	PEC1pt3_ty	PEC1pt3_tz	PEC2pt2_tx	PEC2pt2_ty	PEC2pt2_tz	PEC2pt3_tx	PEC2pt3_ty	PEC2pt3_tz	PEC3pt2_tx	PEC3pt2_ty	PEC3pt2_tz	PEC3pt3_tx	PEC3pt3_ty	PEC3pt3_tz	DELT2pt2a_tx	DELT2pt2a_ty	DELT2pt2a_tz	DELT2pt2_tx	DELT2pt2_ty	DELT2pt2_tz	LAT1pt2_tx	LAT1pt2_ty	LAT1pt2_tz	LAT1pt3_tx	LAT1pt3_ty	LAT1pt3_tz	LAT2pt2_tx	LAT2pt2_ty	LAT2pt2_tz	LAT2pt3_tx	LAT2pt3_ty	LAT2pt3_tz	LAT3pt2_tx	LAT3pt2_ty	LAT3pt2_tz	LAT3pt3_tx	LAT3pt3_ty	LAT3pt3_tz
      1.10000000	     -0.32437624	      0.13739047	     -0.13739047	      0.32437624	     -0.06567959	      0.53079935	      0.23859065	     -0.23859065	     -0.53079935	      0.06567959	     98.49425733	     76.79895866	     -1.71904908	    -21.62667785	     30.59075426	     47.40622971	      0.20507290	     -0.23823307	      0.24389113	     -0.11911654	     32.59669934	     -9.29376479	    -26.98734847	      0.74306024	      3.30556798	      5.56110748	     29.18949072	    -13.72474092	     11.90991173	     -4.22452886	     14.21570486	     15.70927765	     10.36740968	     -7.56247635	      4.14874602	     22.93470645	      5.88612298	    -13.35414259	      0.79945711	      5.07906383	      0.00091185	     -0.03110617	     -0.00486475	      0.01652550	     -0.01851013	     -0.00664095	      0.00404721	     -0.06716496	     -0.00386883	      0.00853435	     -0.18333321	     -0.00041834	     -0.00568873	      0.00168998	      0.00007839	      0.00019622	      0.00007849	      0.00039244	      0.00025116	      0.00075348	      0.00042383	     -0.00001141	     -0.00022462	     -0.00026954	      0.00251730	      0.00883189	      0.00614392	     -0.00823456	      0.01988241	     -0.01885843	      0.00251730	      0.00883189	      0.00614392	      0.00055466	      0.01843177	     -0.00968521	      0.00397179	      0.00491130	      0.01602565	      0.00000000	      0.00788880	      0.00000000	     -0.00721057	     -0.03332224	     -0.00650528	      0.01469724	     -0.00048242	     -0.00388351	     -0.00089599	      0.01501848	     -0.00614392	      0.00247464	      0.02167439	     -0.01791977	     -0.00601592	      0.01301317	     -0.00550393	     -0.01254384	      0.02747698	     -0.03076228	     -0.02355170	      0.01454915	     -0.00738124	     -0.01561580	      0.03174360	     -0.03844218
      1.13333333	     -0.32581130	      0.13799829	     -0.13799829	      0.32581130	     -0.06597016	      0.53314763	      0.23964619	     -0.23964619	     -0.53314763	      0.06597016	     98.19591416	     77.13872065	     -1.71384201	    -20.09360543	     30.55388529	     46.06183860	      0.21195224	     -0.23063867	      0.25087960	     -0.11531934	     32.32458293	     -9.51838223	    -25.91576899	     -0.81459172	      3.01205410	      5.33955745	     29.27331998	    -14.07723349	     11.64303799	     -4.33354840	     13.98437020	     15.98108273	      9.99592706	     -7.61996092	      3.99827828	     23.97911239	      5.57865401	    -13.37326619	      0.98875876	      5.08928938	      0.00091063	     -0.03110194	     -0.00486407	      0.01654370	     -0.01850011	     -0.00679716	      0.00414655	     -0.06710073	     -0.00376053	      0.00839621	     -0.18336375	     -0.00041562	     -0.00552741	      0.00163250	      0.00009295	      0.00019143	      0.00007657	      0.00038286	      0.00024503	      0.00073508	      0.00041348	     -0.00001117	     -0.00022763	     -0.00027316	      0.00252844	      0.00887096	      0.00617110	     -0.00827099	      0.01997037	     -0.01894186	      0.00252844	      0.00887096	      0.00617110	      0.00055711	      0.01851331	     -0.00972806	      0.00398455	      0.00493303	      0.01605644	      0.00000000	      0.00795926	      0.00000000	     -0.00724247	     -0.03346966	     -0.00656376	      0.01383021	     -0.00043481	     -0.00333075	     -0.00089995	      0.01508492	     -0.00617110	      0.00248558	      0.02177028	     -0.01799905	     -0.00604254	      0.01307074	     -0.00552828	     -0.01259934	      0.02759854	     -0.03089837	     -0.02365589	      0.01461351	     -0.00741389	     -0.01568489	      0.03188403	     -0.03861225
      1.16666667	     -0.32604167	      0.13809586	     -0.13809586	      0.32604167	     -0.06601681	      0.53352460	      0.23981564	     -0.23981564	     -0.53352460	      0.06601681	     98.19938111	     77.19326271	     -1.71390252	    -19.76626803	     30.41869540	     45.26045420	      0.21670085	     -0.24181621	      0.25565728	     -0.12090810	     32.78464538	     -8.48867919	    -28.54225952	      2.89152498	      3.87941778	      5.68719418	     28.90326626	    -13.37171419	     12.02614153	     -4.01317103	     14.59899085	     14.87464563	     10.67842318	     -7.55695441	      4.24730721	     21.08597874	      6.12181259	    -13.33828268	      0.04348518	      5.08950338	      0.00090616	     -0.03108645	     -0.00486158	      0.01655261	     -0.01846339	     -0.00688908	      0.00420576	     -0.06706244	     -0.00369597	      0.00831412	     -0.18338171	     -0.00041335	     -0.00543124	      0.00159850	      0.00010116	      0.00019845	      0.00007938	      0.00039691	      0.00025402	      0.00076206	      0.00042866	     -0.00001157	     -0.00022255	     -0.00026705	      0.00253023	      0.00887723	      0.00617547	     -0.00827684	      0.01998449	     -0.01895525	      0.00253023	      0.00887723	      0.00617547	      0.00055751	      0.01852640	     -0.00973494	      0.00398660	      0.00493652	      0.01606136	      0.00000000	      0.00797060	      0.00000000	     -0.00724760	     -0.03349333	     -0.00657318	      0.01364122	     -0.00042476	     -0.00321723	     -0.00090059	      0.01509558	     -0.00617547	      0.00248734	      0.02178567	     -0.01801178	     -0.00604681	      0.01307998	     -0.00553219	     -0.01260824	      0.02761806	     -0.03092022	     -0.02367262	      0.01462385	     -0.00741914	     -0.01569598	      0.03190658	     -0.03863955
      1.20000000	     -0.32639066	      0.13824368	     -0.13824368	      0.32639066	     -0.06608747	      0.53409568	      0.24007233	     -0.24007233	     -0.53409568	      0.06608747	     98.13354374	     77.27589046	     -1.71275344	    -19.40596128	     30.39469490	     44.89935316	      0.21581484	     -0.24432040	      0.25476835	     -0.12216020	     32.68679715	     -8.47764169	    -28.67465273	      3.85798880	      3.57570695	      5.64187017	     28.69151386	    -12.94733685	     11.83039736	     -4.19455088	     14.67778677	     14.92858789	     10.27949309	     -7.50485111	      4.67345442	     20.86026212	      5.85995345	    -13.36055984	     -0.03899835	      5.10180259	      0.00090536	     -0.03108370	     -0.00486113	      0.01655610	     -0.01845687	     -0.00693019	      0.00423244	     -0.06704519	     -0.00366688	      0.00827720	     -0.18338974	     -0.00041216	     -0.00538791	      0.00158325	      0.00010474	      0.00019998	      0.00007999	      0.00039997	      0.00025598	      0.00076794	      0.00043197	     -0.00001148	     -0.00022360	     -0.00026832	      0.00253293	      0.00888673	      0.00618208	     -0.00828570	      0.02000589	     -0.01897554	      0.00253293	      0.00888673	      0.00618208	      0.00055810	      0.01854623	     -0.00974536	      0.00398969	      0.00494180	      0.01606880	      0.00000000	      0.00798780	      0.00000000	     -0.00725535	     -0.03352918	     -0.00658745	      0.01343114	     -0.00041376	     -0.00309473	     -0.00090155	      0.01511174	     -0.00618208	      0.00249000	      0.02180899	     -0.01803106	     -0.00605328	      0.01309398	     -0.00553811	     -0.01262174	      0.02764762	     -0.03095331	     -0.02369796	      0.01463950	     -0.00742708	     -0.01571278	      0.03194073	     -0.03868091
